<?xml version="1.0" ?>
<svg version="1.1" viewBox="0 0 21 16" fill="none" stroke="none" stroke-linecap="square" stroke-miterlimit="10" xmlns="http://www.w3.org/2000/svg">
<path fill="#dd7e6b" d="m3 4l15 0l0 10l-5 0l0 2l-2 0l0 -1l-1 0l0 1l-2 0l0 -2l-5 0z"/>
<path fill="#fff" d="m7 6l3 0l0 2l-3 0z"/>
<path fill="#fff" d="m11 6l3 0l0 2l-3 0z"/>
<path fill="#000" d="m8 6l1 0l0 2l-1 0z"/>
<path fill="#000" d="m12 6l1 0l0 2l-1 0z"/>
<path fill="#cc4125" d="m8 12l5 0l0 2l-5 0z"/>
<path fill="#e6b8af" d="m10 9l1 0l0 1l-1 0z"/>
<path fill="#000" d="m3 4l15 0l0 2l-1 0l0 -1l-13 0l0 1l-1 0l0 -2z"/>

<path fill="#900" d="m8 0l5 0l0 1l5 0l0 1l2 0l0 3l1 0l0 7l-1 0l0 3l-3 0l0 -3l-1 0l0 -5l-1 0l0 -2l-9 0l0 2l-1 0l0 5l-1 0l0 3l-3 0l0 -3l-1 0l0 -7l1 0l0 -3l2 0l0 -1l5 0l0 -1z"/>
<path fill="#600" d="m5 5l1 0l0 2l-1 0l0 5l-1 0l0 -6l1 0l0 -1z"/>
<path fill="#600" d="m15 5l1 0l0 2l-1 0z"/>
<path fill="#600" d="m3 12l1 0l0 3l-1 0z"/>
<path fill="#600" d="m19 12l1 0l0 3l-1 0z"/>
<path fill="#600" d="m20 10l1 0l0 2l-1 0z"/>
<path fill="#f6b26b" d="m0 7l1 0l0 3l-1 0z"/>
<path fill="#f6b26b" d="m20 7l1 0l0 3l-1 0z"/>

<path fill="#b7b7b7" d="m7 14l9 0l0 1l-9 0z"/>
<path fill="#b7b7b7" d="m9 10l7 0l0 1l-7 0z"/>
<path fill="#b7b7b7" d="m16 13l1 0l0 1l-1 0z"/>
<path fill="#b7b7b7" d="m12 11l1 0l0 1l-1 0z"/>
<path fill="#b7b7b7" d="m12 13l1 0l0 1l-1 0z"/>
<path fill="#b7b7b7" d="m8 13l1 0l0 1l-1 0z"/>
<path fill="#b7b7b7" d="m8 12l8 0l0 1l-8 0z"/>
<path fill="#999" d="m4 13l1 0l0 1l-1 0z"/>
<path fill="#999" d="m5 12l3 0l0 1l-3 0z"/>
<path fill="#999" d="m5 10l4 0l0 1l-4 0z"/>
<path fill="#999" d="m8 11l1 0l0 1l-1 0z"/>
<path fill="#999" d="m5 14l2 0l0 1l-2 0z"/>
</svg>
